<svg fill="#ffffff" viewBox="0 0 32 32" xmlns="http://www.w3.org/2000/svg" stroke="#ffffff"><g id="SVGRepo_bgCarrier" stroke-width="0"></g><g id="SVGRepo_tracerCarrier" stroke-linecap="round" stroke-linejoin="round"></g><g id="SVGRepo_iconCarrier"> <title></title> <g data-name="Layer 51" id="Layer_51"> <path d="M30,16.1a.88.88,0,0,0,0-.23s0-.08,0-.12a1.11,1.11,0,0,0-.12-.27s0,0,0-.05h0a.91.91,0,0,0-.24-.24l-10-7a1,1,0,0,0-1.14,1.64L25.83,15H3a1,1,0,0,0,0,2H25.83l-7.4,5.18a1,1,0,0,0-.25,1.39A1,1,0,0,0,19,24a1,1,0,0,0,.57-.18l10-7h0a1,1,0,0,0,.25-.26.93.93,0,0,0,.05-.1A.69.69,0,0,0,30,16.3a.17.17,0,0,0,0-.07A.69.69,0,0,0,30,16.1Z"></path> </g> </g></svg>