<!DOCTYPE svg PUBLIC "-//W3C//DTD SVG 1.1//EN" "http://www.w3.org/Graphics/SVG/1.1/DTD/svg11.dtd">

<!-- Uploaded to: SVG Repo, www.svgrepo.com, Transformed by: SVG Repo Mixer Tools -->
<svg height="800px" width="800px" version="1.1" id="_x32_" xmlns="http://www.w3.org/2000/svg" xmlns:xlink="http://www.w3.org/1999/xlink" viewBox="0 0 512 512" xml:space="preserve">

<g id="SVGRepo_bgCarrier" stroke-width="0"/>

<g id="SVGRepo_tracerCarrier" stroke-linecap="round" stroke-linejoin="round"/>

<g id="SVGRepo_iconCarrier"> <style type="text/css"> .st0{fill:#D7CFCF;filter: drop-shadow(3px 6px 1px rgb(91 91 91 / 20%));} </style> <g> <path class="st0" d="M512,282.163c-0.881-1.49-21.826-38.71-63.998-76.621c-21.106-18.932-47.584-38.03-79.667-52.494 c-32.041-14.455-69.743-24.183-112.337-24.162c-42.595-0.014-80.296,9.707-112.341,24.162 c-48.12,21.722-83.626,53.753-107.33,80.244C12.627,259.846,0.644,281.037,0,282.163l29.331,16.484l13.676,7.749l0.024-0.042 l0.007-0.014c0.895-1.629,20.324-34.688,56.487-66.326c18.068-15.848,40.244-31.331,66.274-42.786 c26.061-11.456,55.91-18.96,90.199-18.974c35.104,0.014,65.561,7.881,92.056,19.798c39.685,17.848,70.324,45.171,90.808,68.131 c10.245,11.462,17.938,21.785,22.98,29.1c2.525,3.657,4.385,6.566,5.574,8.49c0.594,0.966,1.02,1.679,1.286,2.119l0.252,0.448 l0.042,0.063l9.707-5.518l-9.734,5.469L512,282.163z"/> <path class="st0" d="M255.999,210.339c-47.71,0-86.388,38.674-86.388,86.391c0,47.71,38.678,86.384,86.388,86.384 c47.71,0,86.388-38.674,86.388-86.384C342.386,249.014,303.708,210.339,255.999,210.339z"/> </g> </g>

</svg>