<svg xmlns="http://www.w3.org/2000/svg" width="53" height="75" fill="none" transform="scale(1.4)">
    <path fill="#0A0A0A" fill-rule="evenodd"
          d="M52.885 0H6.75C21.358 0 33.2 11.894 33.2 26.566c0 14.671-11.842 26.565-26.45 26.565h46.135V0Z"
          clip-rule="evenodd"/>
    <path fill="#FF8813"
          d="M.001 16.096h3.068c5.761 0 10.431 4.688 10.431 10.47 0 5.782-4.67 10.47-10.431 10.47H.001v-20.94Z"/>
    <path fill="#0A0A0A"
          d="M0 67.263h.757v7.607H0v-7.607Zm7.252 0v.717H4.927v6.89h-.758v-6.89H1.844v-.717h5.408Zm6.707 0c1.03 0 1.882.37 2.552 1.108.678.732 1.017 1.63 1.017 2.695s-.339 1.967-1.017 2.706c-.67.732-1.521 1.098-2.552 1.098h-2.92v-7.607h2.92Zm0 6.89c.829 0 1.507-.298 2.033-.892.534-.594.8-1.325.8-2.195 0-.87-.266-1.6-.8-2.195-.526-.594-1.204-.891-2.033-.891h-2.164v6.172h2.164Zm5.621-.001h3.678v.718h-4.435v-7.607h4.38v.717H19.58v2.695h3.353v.717H19.58v2.76Zm5.736 0h3.461v.718H24.56v-7.607h.757v6.89Zm4.545-6.889h.758v7.607h-.758v-7.607Zm9.729 3.987v.392c0 .942-.335 1.739-1.006 2.39-.67.646-1.568.968-2.693.968-1.146 0-2.095-.38-2.845-1.141-.75-.76-1.124-1.692-1.124-2.793 0-1.101.375-2.032 1.124-2.793.75-.76 1.699-1.14 2.845-1.14.7 0 1.341.17 1.925.51.584.34 1.035.793 1.352 1.358l-.67.392a2.696 2.696 0 0 0-1.06-1.109 2.998 2.998 0 0 0-1.547-.413c-.944 0-1.716.308-2.315.924-.598.616-.897 1.373-.897 2.271 0 .898.299 1.656.897 2.271.599.616 1.37.924 2.315.924.851 0 1.532-.214 2.044-.641.512-.435.804-.985.877-1.652h-3.007v-.717h3.785Zm6.166-3.987h.758v7.607h-.758v-3.554h-4.11v3.554h-.757v-7.607h.757v3.336h4.11v-3.336Zm7.244 0v.717h-2.325v6.89h-.758v-6.89h-2.325v-.717H53Z"/>
</svg>
