<svg id="Layer_1" data-name="Layer 1" xmlns="http://www.w3.org/2000/svg" viewBox="0 0 1200.51 400.16"><defs><style>.cls-1,.cls-4{
    fill:#1d1d1b;
    -webkit-filter: drop-shadow( 13px 20px 6px rgba(0, 0, 0, .3));
    filter: drop-shadow( 13px 20px 6px rgba(0, 0, 0, .3));
    }.cls-2{
    fill:#fff;
    -webkit-filter: drop-shadow( 13px 20px 6px rgba(0, 0, 0, .3));
    filter: drop-shadow( 13px 20px 6px rgba(0, 0, 0, .3));
    }.cls-3{
    fill:none;stroke:#fff;stroke-miterlimit:10;stroke-width:3px;
    -webkit-filter: drop-shadow( 13px 20px 6px rgba(0, 0, 0, .3));
    filter: drop-shadow( 13px 20px 6px rgba(0, 0, 0, .3));
    }.cls-4{
    font-size:240.63px;font-family:Caveat-Regular, Caveat;
    -webkit-filter: drop-shadow( 13px 20px 6px rgba(0, 0, 0, .3));
    filter: drop-shadow( 13px 20px 6px rgba(0, 0, 0, .3));
    }.cls-5{
    letter-spacing:0.01em;
    -webkit-filter: drop-shadow( 13px 20px 6px rgba(0, 0, 0, .3));
    filter: drop-shadow( 13px 20px 6px rgba(0, 0, 0, .3));
    }</style></defs><path class="cls-1" d="M203.35,400.16l-198.3-127Q5.8,223,6.54,172.9l30.3-67.14L27.33,81.4V27.33L0,0,33.27,20.2,73.08,45.75l20.2,25,58.82,3.57,36.84,21.39,21.39,19.61,39.81,13.66-6.8,23.14.89,16.71-17.49,20.05-11.58,25.51-36.32-3.9L169,240.63l47.23,82Q209.81,361.4,203.35,400.16Z"/><polygon class="cls-2" points="181.74 120.32 146.53 108.95 127.15 108.95 172.6 131.23 185.3 143.71 176.61 128.11 184.19 128.78 181.74 120.32"/><circle class="cls-3" cx="133.19" cy="227.11" r="15.21"/><circle class="cls-3" cx="86.89" cy="168.68" r="12.15"/><line class="cls-3" x1="133.19" y1="309.85" x2="133.19" y2="241.08"/><line class="cls-3" x1="34.82" y1="204.2" x2="77.59" y2="175.02"/><text class="cls-4" transform="translate(302.35 310.68)"><tspan class="cls-5">D</tspan><tspan x="142.69" y="0">igitaLynx</tspan></text><polygon class="cls-2" points="35.29 202.05 35.67 205.44 6.23 193.5 6.28 190.25 35.29 202.05"/><polygon class="cls-2" points="131.79 309.85 134.74 308.19 210.6 356.63 210.06 359.89 131.79 309.85"/></svg>