<svg id="Layer_1" data-name="Layer 1" xmlns="http://www.w3.org/2000/svg" width="994.49" height="334.46" viewBox="0 0 994.49 334.46"><defs><style>.cls-1,.cls-4{
    fill:#1d1d1b;
    -webkit-filter: drop-shadow( 3px 3px 2px rgba(0, 0, 0, .7));
    filter: drop-shadow( 3px 3px 2px rgba(0, 0, 0, .7));
    }.cls-2{
    fill:#fff;
    -webkit-filter: drop-shadow( 3px 3px 2px rgba(0, 0, 0, .7));
    filter: drop-shadow( 3px 3px 2px rgba(0, 0, 0, .7));
    }.cls-3{
    fill:none;stroke:#fff;stroke-miterlimit:10;stroke-width:3px;
    -webkit-filter: drop-shadow( 3px 3px 2px rgba(0, 0, 0, .7));
    filter: drop-shadow( 3px 3px 2px rgba(0, 0, 0, .7));
    }.cls-4{
    font-size:240.63px;font-family:Caveat-Regular, Caveat;
    -webkit-filter: drop-shadow( 3px 3px 2px rgba(0, 0, 0, .7));
    filter: drop-shadow( 3px 3px 2px rgba(0, 0, 0, .7));
    }.cls-5{
    letter-spacing:0.01em;
    -webkit-filter: drop-shadow( 3px 3px 2px rgba(0, 0, 0, .7));
    filter: drop-shadow( 3px 3px 2px rgba(0, 0, 0, .7));
    }</style></defs><path class="cls-1" d="M170,334.46,4.22,228.31q.62-41.9,1.24-83.8L30.79,88.39,22.84,68V22.84L0,0,27.81,16.88,61.08,38.24,78,59.1l49.16,3L157.92,80,175.8,96.34l33.27,11.42-5.68,19.34.74,14-14.62,16.77-9.68,21.32-30.35-3.26-8.2,25.23,39.48,68.53Z"/><polygon class="cls-2" points="151.9 100.56 122.47 91.06 106.27 91.06 144.26 109.69 154.88 120.11 147.61 107.08 153.94 107.64 151.9 100.56"/><circle class="cls-3" cx="111.32" cy="189.82" r="12.71"/><circle class="cls-3" cx="72.62" cy="140.98" r="10.16"/><line class="cls-3" x1="111.32" y1="258.97" x2="111.32" y2="201.5"/><line class="cls-3" x1="29.1" y1="170.68" x2="64.85" y2="146.29"/><text class="cls-4" transform="translate(252.71 259.67)">D<tspan class="cls-5" x="119.26" y="0">igitaLynx</tspan></text><polygon class="cls-2" points="29.5 168.88 29.81 171.71 5.21 161.72 5.25 159.01 29.5 168.88"/><polygon class="cls-2" points="110.15 258.97 112.61 257.59 176.02 298.08 175.57 300.8 110.15 258.97"/></svg>