<!DOCTYPE svg PUBLIC "-//W3C//DTD SVG 1.1//EN" "http://www.w3.org/Graphics/SVG/1.1/DTD/svg11.dtd">
<!-- Uploaded to: SVG Repo, www.svgrepo.com, Transformed by: SVG Repo Mixer Tools -->
<svg fill="#9AA0A6" height="800px" width="800px" version="1.1" id="Capa_1" xmlns="http://www.w3.org/2000/svg" xmlns:xlink="http://www.w3.org/1999/xlink" viewBox="0 0 242.512 242.512" xml:space="preserve" stroke="#9AA0A6">
<g id="SVGRepo_bgCarrier" stroke-width="0"/>
<g id="SVGRepo_tracerCarrier" stroke-linecap="round" stroke-linejoin="round"/>
<g id="SVGRepo_iconCarrier"> <path d="M121.256,86.291c5.522,0,10,4.477,10,10v33.221c0,5.523-4.478,10-10,10s-10-4.477-10-10V96.291 C111.256,90.768,115.733,86.291,121.256,86.291z M132.277,51.053c30.624,5.253,54.008,31.976,54.008,64.076v62.354 c0,35.857-29.172,65.029-65.029,65.029s-65.029-29.172-65.029-65.029v-62.354c0-32.703,24.269-59.833,55.74-64.355 C116.418,22.055,141.309,0,171.256,0v20C152.276,20,136.354,33.292,132.277,51.053z M121.256,70.1 c-24.829,0-45.029,20.2-45.029,45.029v62.354c0,24.829,20.2,45.029,45.029,45.029s45.029-20.2,45.029-45.029v-62.354 C166.285,90.3,146.085,70.1,121.256,70.1z"/> </g>
</svg>